<?xml version="1.0" encoding="utf-8"?>
<svg version="1.1" xmlns:xlink="http://www.w3.org/1999/xlink" width="12px" height="12px" viewBox="37 44  12 12" xmlns="http://www.w3.org/2000/svg">
  <path d="M 43 44  C 46.36 44  49 46.64  49 50  C 49 53.36  46.36 56  43 56  C 39.64 56  37 53.36  37 50  C 37 46.64  39.64 44  43 44  Z " fill-rule="nonzero" fill="#ffffff" stroke="none" />
  <path d="M 43 44.5  C 46.08 44.5  48.5 46.92  48.5 50  C 48.5 53.08  46.08 55.5  43 55.5  C 39.92 55.5  37.5 53.08  37.5 50  C 37.5 46.92  39.92 44.5  43 44.5  Z " stroke-width="1" stroke="#797979" fill="none" />
  <path d="M 43 53  C 41.32 53  40 51.68  40 50  C 40 48.32  41.32 47  43 47  C 44.68 47  46 48.32  46 50  C 46 51.68  44.68 53  43 53  " fill-rule="nonzero" fill="#797979" stroke="none" />
</svg>