<?xml version="1.0" encoding="utf-8"?>
<svg version="1.1" xmlns:xlink="http://www.w3.org/1999/xlink" width="12px" height="12px" viewBox="100 44  12 12" xmlns="http://www.w3.org/2000/svg">
  <path d="M 106 44  C 109.36 44  112 46.64  112 50  C 112 53.36  109.36 56  106 56  C 102.64 56  100 53.36  100 50  C 100 46.64  102.64 44  106 44  Z " fill-rule="nonzero" fill="#f0f0f0" stroke="none" />
  <path d="M 106 44.5  C 109.08 44.5  111.5 46.92  111.5 50  C 111.5 53.08  109.08 55.5  106 55.5  C 102.92 55.5  100.5 53.08  100.5 50  C 100.5 46.92  102.92 44.5  106 44.5  Z " stroke-width="1" stroke="#797979" fill="none" />
  <path d="M 106 53  C 104.32 53  103 51.68  103 50  C 103 48.32  104.32 47  106 47  C 107.68 47  109 48.32  109 50  C 109 51.68  107.68 53  106 53  " fill-rule="nonzero" fill="#797979" stroke="none" />
</svg>