<?xml version="1.0" encoding="utf-8"?>
<svg version="1.1" xmlns:xlink="http://www.w3.org/1999/xlink" width="12px" height="12px" viewBox="532 84  12 12" xmlns="http://www.w3.org/2000/svg">
  <path d="M 538 84  C 541.36 84  544 86.64  544 90  C 544 93.36  541.36 96  538 96  C 534.64 96  532 93.36  532 90  C 532 86.64  534.64 84  538 84  Z " fill-rule="nonzero" fill="#ffffff" stroke="none" />
  <path d="M 538 84.5  C 541.08 84.5  543.5 86.92  543.5 90  C 543.5 93.08  541.08 95.5  538 95.5  C 534.92 95.5  532.5 93.08  532.5 90  C 532.5 86.92  534.92 84.5  538 84.5  Z " stroke-width="1" stroke="#797979" fill="none" />
  <path d="M 538 93  C 536.32 93  535 91.68  535 90  C 535 88.32  536.32 87  538 87  C 539.68 87  541 88.32  541 90  C 541 91.68  539.68 93  538 93  " fill-rule="nonzero" fill="#797979" stroke="none" />
</svg>