<?xml version="1.0" encoding="utf-8"?>
<svg version="1.1" xmlns:xlink="http://www.w3.org/1999/xlink" width="12px" height="12px" viewBox="258 3  12 12" xmlns="http://www.w3.org/2000/svg">
  <path d="M 264 3  C 267.36 3  270 5.64  270 9  C 270 12.36  267.36 15  264 15  C 260.64 15  258 12.36  258 9  C 258 5.64  260.64 3  264 3  Z " fill-rule="nonzero" fill="#ffffff" stroke="none" />
  <path d="M 264 3.5  C 267.08 3.5  269.5 5.92  269.5 9  C 269.5 12.08  267.08 14.5  264 14.5  C 260.92 14.5  258.5 12.08  258.5 9  C 258.5 5.92  260.92 3.5  264 3.5  Z " stroke-width="1" stroke="#797979" fill="none" />
  <path d="M 264 12  C 262.32 12  261 10.68  261 9  C 261 7.32  262.32 6  264 6  C 265.68 6  267 7.32  267 9  C 267 10.68  265.68 12  264 12  " fill-rule="nonzero" fill="#797979" stroke="none" />
</svg>