<?xml version="1.0" encoding="utf-8"?>
<svg version="1.1" xmlns:xlink="http://www.w3.org/1999/xlink" width="12px" height="12px" viewBox="327 3  12 12" xmlns="http://www.w3.org/2000/svg">
  <path d="M 333 3  C 336.36 3  339 5.64  339 9  C 339 12.36  336.36 15  333 15  C 329.64 15  327 12.36  327 9  C 327 5.64  329.64 3  333 3  Z " fill-rule="nonzero" fill="#ffffff" stroke="none" />
  <path d="M 333 3.5  C 336.08 3.5  338.5 5.92  338.5 9  C 338.5 12.08  336.08 14.5  333 14.5  C 329.92 14.5  327.5 12.08  327.5 9  C 327.5 5.92  329.92 3.5  333 3.5  Z " stroke-width="1" stroke="#797979" fill="none" />
  <path d="M 333 12  C 331.32 12  330 10.68  330 9  C 330 7.32  331.32 6  333 6  C 334.68 6  336 7.32  336 9  C 336 10.68  334.68 12  333 12  " fill-rule="nonzero" fill="#797979" stroke="none" />
</svg>