<?xml version="1.0" encoding="utf-8"?>
<svg version="1.1" xmlns:xlink="http://www.w3.org/1999/xlink" width="12px" height="12px" viewBox="595 125  12 12" xmlns="http://www.w3.org/2000/svg">
  <path d="M 601 125  C 604.36 125  607 127.64  607 131  C 607 134.36  604.36 137  601 137  C 597.64 137  595 134.36  595 131  C 595 127.64  597.64 125  601 125  Z " fill-rule="nonzero" fill="#f0f0f0" stroke="none" />
  <path d="M 601 125.5  C 604.08 125.5  606.5 127.92  606.5 131  C 606.5 134.08  604.08 136.5  601 136.5  C 597.92 136.5  595.5 134.08  595.5 131  C 595.5 127.92  597.92 125.5  601 125.5  Z " stroke-width="1" stroke="#797979" fill="none" />
  <path d="M 601 134  C 599.32 134  598 132.68  598 131  C 598 129.32  599.32 128  601 128  C 602.68 128  604 129.32  604 131  C 604 132.68  602.68 134  601 134  " fill-rule="nonzero" fill="#797979" stroke="none" />
</svg>