<?xml version="1.0" encoding="utf-8"?>
<svg version="1.1" xmlns:xlink="http://www.w3.org/1999/xlink" width="12px" height="12px" viewBox="334 44  12 12" xmlns="http://www.w3.org/2000/svg">
  <path d="M 340 44  C 343.36 44  346 46.64  346 50  C 346 53.36  343.36 56  340 56  C 336.64 56  334 53.36  334 50  C 334 46.64  336.64 44  340 44  Z " fill-rule="nonzero" fill="#f0f0f0" stroke="none" />
  <path d="M 340 44.5  C 343.08 44.5  345.5 46.92  345.5 50  C 345.5 53.08  343.08 55.5  340 55.5  C 336.92 55.5  334.5 53.08  334.5 50  C 334.5 46.92  336.92 44.5  340 44.5  Z " stroke-width="1" stroke="#797979" fill="none" />
  <path d="M 340 53  C 338.32 53  337 51.68  337 50  C 337 48.32  338.32 47  340 47  C 341.68 47  343 48.32  343 50  C 343 51.68  341.68 53  340 53  " fill-rule="nonzero" fill="#797979" stroke="none" />
</svg>