<?xml version="1.0" encoding="utf-8"?>
<svg version="1.1" xmlns:xlink="http://www.w3.org/1999/xlink" width="12px" height="12px" viewBox="153 81  12 12" xmlns="http://www.w3.org/2000/svg">
  <path d="M 159 81  C 162.36 81  165 83.64  165 87  C 165 90.36  162.36 93  159 93  C 155.64 93  153 90.36  153 87  C 153 83.64  155.64 81  159 81  Z " fill-rule="nonzero" fill="#f0f0f0" stroke="none" />
  <path d="M 159 81.5  C 162.08 81.5  164.5 83.92  164.5 87  C 164.5 90.08  162.08 92.5  159 92.5  C 155.92 92.5  153.5 90.08  153.5 87  C 153.5 83.92  155.92 81.5  159 81.5  Z " stroke-width="1" stroke="#797979" fill="none" />
  <path d="M 159 90  C 157.32 90  156 88.68  156 87  C 156 85.32  157.32 84  159 84  C 160.68 84  162 85.32  162 87  C 162 88.68  160.68 90  159 90  " fill-rule="nonzero" fill="#797979" stroke="none" />
</svg>