<?xml version="1.0" encoding="utf-8"?>
<svg version="1.1" xmlns:xlink="http://www.w3.org/1999/xlink" width="12px" height="12px" viewBox="85 168.5  12 12" xmlns="http://www.w3.org/2000/svg">
  <path d="M 91 168.5  C 94.36 168.5  97 171.14  97 174.5  C 97 177.86  94.36 180.5  91 180.5  C 87.64 180.5  85 177.86  85 174.5  C 85 171.14  87.64 168.5  91 168.5  Z " fill-rule="nonzero" fill="#ffffff" stroke="none" />
  <path d="M 91 169  C 94.08 169  96.5 171.42  96.5 174.5  C 96.5 177.58  94.08 180  91 180  C 87.92 180  85.5 177.58  85.5 174.5  C 85.5 171.42  87.92 169  91 169  Z " stroke-width="1" stroke="#797979" fill="none" />
  <path d="M 91 177.5  C 89.32 177.5  88 176.18  88 174.5  C 88 172.82  89.32 171.5  91 171.5  C 92.68 171.5  94 172.82  94 174.5  C 94 176.18  92.68 177.5  91 177.5  " fill-rule="nonzero" fill="#797979" stroke="none" />
</svg>