<?xml version="1.0" encoding="utf-8"?>
<svg version="1.1" xmlns:xlink="http://www.w3.org/1999/xlink" width="12px" height="12px" viewBox="52 8  12 12" xmlns="http://www.w3.org/2000/svg">
  <path d="M 58 8  C 61.36 8  64 10.64  64 14  C 64 17.36  61.36 20  58 20  C 54.64 20  52 17.36  52 14  C 52 10.64  54.64 8  58 8  Z " fill-rule="nonzero" fill="#f0f0f0" stroke="none" />
  <path d="M 58 8.5  C 61.08 8.5  63.5 10.92  63.5 14  C 63.5 17.08  61.08 19.5  58 19.5  C 54.92 19.5  52.5 17.08  52.5 14  C 52.5 10.92  54.92 8.5  58 8.5  Z " stroke-width="1" stroke="#797979" fill="none" />
  <path d="M 58 17  C 56.32 17  55 15.68  55 14  C 55 12.32  56.32 11  58 11  C 59.68 11  61 12.32  61 14  C 61 15.68  59.68 17  58 17  " fill-rule="nonzero" fill="#797979" stroke="none" />
</svg>