<?xml version="1.0" encoding="utf-8"?>
<svg version="1.1" xmlns:xlink="http://www.w3.org/1999/xlink" width="12px" height="12px" viewBox="532 56  12 12" xmlns="http://www.w3.org/2000/svg">
  <path d="M 538 56  C 541.36 56  544 58.64  544 62  C 544 65.36  541.36 68  538 68  C 534.64 68  532 65.36  532 62  C 532 58.64  534.64 56  538 56  Z " fill-rule="nonzero" fill="#ffffff" stroke="none" />
  <path d="M 538 56.5  C 541.08 56.5  543.5 58.92  543.5 62  C 543.5 65.08  541.08 67.5  538 67.5  C 534.92 67.5  532.5 65.08  532.5 62  C 532.5 58.92  534.92 56.5  538 56.5  Z " stroke-width="1" stroke="#797979" fill="none" />
  <path d="M 538 65  C 536.32 65  535 63.68  535 62  C 535 60.32  536.32 59  538 59  C 539.68 59  541 60.32  541 62  C 541 63.68  539.68 65  538 65  " fill-rule="nonzero" fill="#797979" stroke="none" />
</svg>