<?xml version="1.0" encoding="utf-8"?>
<svg version="1.1" xmlns:xlink="http://www.w3.org/1999/xlink" width="12px" height="12px" viewBox="522 76  12 12" xmlns="http://www.w3.org/2000/svg">
  <path d="M 528 76  C 531.36 76  534 78.64  534 82  C 534 85.36  531.36 88  528 88  C 524.64 88  522 85.36  522 82  C 522 78.64  524.64 76  528 76  Z " fill-rule="nonzero" fill="#f0f0f0" stroke="none" />
  <path d="M 528 76.5  C 531.08 76.5  533.5 78.92  533.5 82  C 533.5 85.08  531.08 87.5  528 87.5  C 524.92 87.5  522.5 85.08  522.5 82  C 522.5 78.92  524.92 76.5  528 76.5  Z " stroke-width="1" stroke="#797979" fill="none" />
  <path d="M 528 85  C 526.32 85  525 83.68  525 82  C 525 80.32  526.32 79  528 79  C 529.68 79  531 80.32  531 82  C 531 83.68  529.68 85  528 85  " fill-rule="nonzero" fill="#797979" stroke="none" />
</svg>