<?xml version="1.0" encoding="utf-8"?>
<svg version="1.1" xmlns:xlink="http://www.w3.org/1999/xlink" width="12px" height="12px" viewBox="579 76  12 12" xmlns="http://www.w3.org/2000/svg">
  <path d="M 585 76  C 588.36 76  591 78.64  591 82  C 591 85.36  588.36 88  585 88  C 581.64 88  579 85.36  579 82  C 579 78.64  581.64 76  585 76  Z " fill-rule="nonzero" fill="#ffffff" stroke="none" />
  <path d="M 585 76.5  C 588.08 76.5  590.5 78.92  590.5 82  C 590.5 85.08  588.08 87.5  585 87.5  C 581.92 87.5  579.5 85.08  579.5 82  C 579.5 78.92  581.92 76.5  585 76.5  Z " stroke-width="1" stroke="#797979" fill="none" />
  <path d="M 585 85  C 583.32 85  582 83.68  582 82  C 582 80.32  583.32 79  585 79  C 586.68 79  588 80.32  588 82  C 588 83.68  586.68 85  585 85  " fill-rule="nonzero" fill="#797979" stroke="none" />
</svg>