<?xml version="1.0" encoding="utf-8"?>
<svg version="1.1" xmlns:xlink="http://www.w3.org/1999/xlink" width="12px" height="12px" viewBox="429 11.5  12 12" xmlns="http://www.w3.org/2000/svg">
  <path d="M 435 11.5  C 438.36 11.5  441 14.14  441 17.5  C 441 20.86  438.36 23.5  435 23.5  C 431.64 23.5  429 20.86  429 17.5  C 429 14.14  431.64 11.5  435 11.5  Z " fill-rule="nonzero" fill="#ffffff" stroke="none" />
  <path d="M 435 12  C 438.08 12  440.5 14.42  440.5 17.5  C 440.5 20.58  438.08 23  435 23  C 431.92 23  429.5 20.58  429.5 17.5  C 429.5 14.42  431.92 12  435 12  Z " stroke-width="1" stroke="#797979" fill="none" />
  <path d="M 435 20.5  C 433.32 20.5  432 19.18  432 17.5  C 432 15.82  433.32 14.5  435 14.5  C 436.68 14.5  438 15.82  438 17.5  C 438 19.18  436.68 20.5  435 20.5  " fill-rule="nonzero" fill="#797979" stroke="none" />
</svg>