<?xml version="1.0" encoding="utf-8"?>
<svg version="1.1" xmlns:xlink="http://www.w3.org/1999/xlink" width="17px" height="16px" xmlns="http://www.w3.org/2000/svg">
  <g transform="matrix(1 0 0 1 -472 -10 )">
    <path d="M 7.55555555555556 1.23076923076923  L 7.55555555555556 8.55769230769231  L 12.9270833333333 13.8076923076923  C 12.2318672839506 14.5  11.4202353395062 15.0384615384615  10.4921875 15.4230769230769  C 9.56413966049383 15.8076923076923  8.58526234567901 16  7.55555555555556 16  C 6.18479938271605 16  4.92062114197531 15.6698717948718  3.76302083333333 15.0096153846154  C 2.60542052469136 14.349358974359  1.68885030864198 13.4535256410256  1.01331018518519 12.3221153846154  C 0.337770061728395 11.1907051282051  0 9.9551282051282  0 8.61538461538461  C 0 7.27564102564102  0.337770061728395 6.0400641025641  1.01331018518519 4.90865384615385  C 1.68885030864198 3.77724358974359  2.60542052469136 2.88141025641026  3.76302083333333 2.22115384615385  C 4.92062114197531 1.56089743589743  6.18479938271605 1.23076923076923  7.55555555555556 1.23076923076923  Z M 14.7569444444444 13.8653846153846  L 9.39525462962963 8.61538461538461  L 17 8.61538461538461  C 17 9.62179487179487  16.8032407407407 10.5785256410256  16.4097222222222 11.4855769230769  C 16.0162037037037 12.3926282051282  15.4652777777778 13.1858974358974  14.7569444444444 13.8653846153846  Z M 15.3570601851852 3.67788461538461  C 16.032600308642 4.80929487179487  16.3703703703704 6.04487179487179  16.3703703703704 7.38461538461539  L 8.81481481481481 7.38461538461539  L 8.81481481481481 0  C 10.1855709876543 0  11.4497492283951 0.330128205128206  12.607349537037 0.990384615384615  C 13.764949845679 1.65064102564102  14.6815200617284 2.54647435897436  15.3570601851852 3.67788461538461  Z " fill-rule="nonzero" fill="#a6a6a6" stroke="none" transform="matrix(1 0 0 1 472 10 )" />
  </g>
</svg>