<?xml version="1.0" encoding="utf-8"?>
<svg version="1.1" xmlns:xlink="http://www.w3.org/1999/xlink" width="20px" height="17px" xmlns="http://www.w3.org/2000/svg">
  <g transform="matrix(1 0 0 1 -441 -10 )">
    <path d="M 6.04567307692308 15.3458806818182  C 6.11778846153846 15.2734375  6.15384615384615 15.1808712121212  6.15384615384615 15.0681818181818  L 6.15384615384615 12.75  C 6.15384615384615 12.6373106060606  6.11778846153846 12.5447443181818  6.04567307692308 12.4723011363636  C 5.97355769230769 12.3998579545455  5.88141025641026 12.3636363636364  5.76923076923077 12.3636363636364  L 1.92307692307692 12.3636363636364  C 1.81089743589744 12.3636363636364  1.71875 12.3998579545455  1.64663461538462 12.4723011363636  C 1.57451923076923 12.5447443181818  1.53846153846154 12.6373106060606  1.53846153846154 12.75  L 1.53846153846154 15.0681818181818  C 1.53846153846154 15.1808712121212  1.57451923076923 15.2734375  1.64663461538462 15.3458806818182  C 1.71875 15.4183238636364  1.81089743589744 15.4545454545455  1.92307692307692 15.4545454545455  L 5.76923076923077 15.4545454545455  C 5.88141025641026 15.4545454545455  5.97355769230769 15.4183238636364  6.04567307692308 15.3458806818182  Z M 6.04567307692308 10.7095170454545  C 6.11778846153846 10.6370738636364  6.15384615384615 10.5445075757576  6.15384615384615 10.4318181818182  L 6.15384615384615 8.11363636363636  C 6.15384615384615 8.00094696969697  6.11778846153846 7.90838068181818  6.04567307692308 7.8359375  C 5.97355769230769 7.76349431818182  5.88141025641026 7.72727272727273  5.76923076923077 7.72727272727273  L 1.92307692307692 7.72727272727273  C 1.81089743589744 7.72727272727273  1.71875 7.76349431818182  1.64663461538462 7.8359375  C 1.57451923076923 7.90838068181818  1.53846153846154 8.00094696969697  1.53846153846154 8.11363636363636  L 1.53846153846154 10.4318181818182  C 1.53846153846154 10.5445075757576  1.57451923076923 10.6370738636364  1.64663461538462 10.7095170454545  C 1.71875 10.7819602272727  1.81089743589744 10.8181818181818  1.92307692307692 10.8181818181818  L 5.76923076923077 10.8181818181818  C 5.88141025641026 10.8181818181818  5.97355769230769 10.7819602272727  6.04567307692308 10.7095170454545  Z M 12.1995192307692 15.3458806818182  C 12.2716346153846 15.2734375  12.3076923076923 15.1808712121212  12.3076923076923 15.0681818181818  L 12.3076923076923 12.75  C 12.3076923076923 12.6373106060606  12.2716346153846 12.5447443181818  12.1995192307692 12.4723011363636  C 12.1274038461538 12.3998579545455  12.0352564102564 12.3636363636364  11.9230769230769 12.3636363636364  L 8.07692307692308 12.3636363636364  C 7.96474358974359 12.3636363636364  7.87259615384615 12.3998579545455  7.80048076923077 12.4723011363636  C 7.72836538461538 12.5447443181818  7.69230769230769 12.6373106060606  7.69230769230769 12.75  L 7.69230769230769 15.0681818181818  C 7.69230769230769 15.1808712121212  7.72836538461538 15.2734375  7.80048076923077 15.3458806818182  C 7.87259615384615 15.4183238636364  7.96474358974359 15.4545454545455  8.07692307692308 15.4545454545455  L 11.9230769230769 15.4545454545455  C 12.0352564102564 15.4545454545455  12.1274038461538 15.4183238636364  12.1995192307692 15.3458806818182  Z M 6.04567307692308 6.07315340909091  C 6.11778846153846 6.00071022727273  6.15384615384615 5.90814393939394  6.15384615384615 5.79545454545455  L 6.15384615384615 3.47727272727273  C 6.15384615384615 3.36458333333333  6.11778846153846 3.27201704545455  6.04567307692308 3.19957386363636  C 5.97355769230769 3.12713068181818  5.88141025641026 3.09090909090909  5.76923076923077 3.09090909090909  L 1.92307692307692 3.09090909090909  C 1.81089743589744 3.09090909090909  1.71875 3.12713068181818  1.64663461538462 3.19957386363636  C 1.57451923076923 3.27201704545455  1.53846153846154 3.36458333333333  1.53846153846154 3.47727272727273  L 1.53846153846154 5.79545454545455  C 1.53846153846154 5.90814393939394  1.57451923076923 6.00071022727273  1.64663461538462 6.07315340909091  C 1.71875 6.14559659090909  1.81089743589744 6.18181818181818  1.92307692307692 6.18181818181818  L 5.76923076923077 6.18181818181818  C 5.88141025641026 6.18181818181818  5.97355769230769 6.14559659090909  6.04567307692308 6.07315340909091  Z M 12.1995192307692 10.7095170454545  C 12.2716346153846 10.6370738636364  12.3076923076923 10.5445075757576  12.3076923076923 10.4318181818182  L 12.3076923076923 8.11363636363636  C 12.3076923076923 8.00094696969697  12.2716346153846 7.90838068181818  12.1995192307692 7.8359375  C 12.1274038461538 7.76349431818182  12.0352564102564 7.72727272727273  11.9230769230769 7.72727272727273  L 8.07692307692308 7.72727272727273  C 7.96474358974359 7.72727272727273  7.87259615384615 7.76349431818182  7.80048076923077 7.8359375  C 7.72836538461538 7.90838068181818  7.69230769230769 8.00094696969697  7.69230769230769 8.11363636363636  L 7.69230769230769 10.4318181818182  C 7.69230769230769 10.5445075757576  7.72836538461538 10.6370738636364  7.80048076923077 10.7095170454545  C 7.87259615384615 10.7819602272727  7.96474358974359 10.8181818181818  8.07692307692308 10.8181818181818  L 11.9230769230769 10.8181818181818  C 12.0352564102564 10.8181818181818  12.1274038461538 10.7819602272727  12.1995192307692 10.7095170454545  Z M 18.3533653846154 15.3458806818182  C 18.4254807692308 15.2734375  18.4615384615385 15.1808712121212  18.4615384615385 15.0681818181818  L 18.4615384615385 12.75  C 18.4615384615385 12.6373106060606  18.4254807692308 12.5447443181818  18.3533653846154 12.4723011363636  C 18.28125 12.3998579545455  18.1891025641026 12.3636363636364  18.0769230769231 12.3636363636364  L 14.2307692307692 12.3636363636364  C 14.1185897435897 12.3636363636364  14.0264423076923 12.3998579545455  13.9543269230769 12.4723011363636  C 13.8822115384615 12.5447443181818  13.8461538461538 12.6373106060606  13.8461538461538 12.75  L 13.8461538461538 15.0681818181818  C 13.8461538461538 15.1808712121212  13.8822115384615 15.2734375  13.9543269230769 15.3458806818182  C 14.0264423076923 15.4183238636364  14.1185897435897 15.4545454545455  14.2307692307692 15.4545454545455  L 18.0769230769231 15.4545454545455  C 18.1891025641026 15.4545454545455  18.28125 15.4183238636364  18.3533653846154 15.3458806818182  Z M 12.1995192307692 6.07315340909091  C 12.2716346153846 6.00071022727273  12.3076923076923 5.90814393939394  12.3076923076923 5.79545454545455  L 12.3076923076923 3.47727272727273  C 12.3076923076923 3.36458333333333  12.2716346153846 3.27201704545455  12.1995192307692 3.19957386363636  C 12.1274038461538 3.12713068181818  12.0352564102564 3.09090909090909  11.9230769230769 3.09090909090909  L 8.07692307692308 3.09090909090909  C 7.96474358974359 3.09090909090909  7.87259615384615 3.12713068181818  7.80048076923077 3.19957386363636  C 7.72836538461538 3.27201704545455  7.69230769230769 3.36458333333333  7.69230769230769 3.47727272727273  L 7.69230769230769 5.79545454545455  C 7.69230769230769 5.90814393939394  7.72836538461538 6.00071022727273  7.80048076923077 6.07315340909091  C 7.87259615384615 6.14559659090909  7.96474358974359 6.18181818181818  8.07692307692308 6.18181818181818  L 11.9230769230769 6.18181818181818  C 12.0352564102564 6.18181818181818  12.1274038461538 6.14559659090909  12.1995192307692 6.07315340909091  Z M 18.3533653846154 10.7095170454545  C 18.4254807692308 10.6370738636364  18.4615384615385 10.5445075757576  18.4615384615385 10.4318181818182  L 18.4615384615385 8.11363636363636  C 18.4615384615385 8.00094696969697  18.4254807692308 7.90838068181818  18.3533653846154 7.8359375  C 18.28125 7.76349431818182  18.1891025641026 7.72727272727273  18.0769230769231 7.72727272727273  L 14.2307692307692 7.72727272727273  C 14.1185897435897 7.72727272727273  14.0264423076923 7.76349431818182  13.9543269230769 7.8359375  C 13.8822115384615 7.90838068181818  13.8461538461538 8.00094696969697  13.8461538461538 8.11363636363636  L 13.8461538461538 10.4318181818182  C 13.8461538461538 10.5445075757576  13.8822115384615 10.6370738636364  13.9543269230769 10.7095170454545  C 14.0264423076923 10.7819602272727  14.1185897435897 10.8181818181818  14.2307692307692 10.8181818181818  L 18.0769230769231 10.8181818181818  C 18.1891025641026 10.8181818181818  18.28125 10.7819602272727  18.3533653846154 10.7095170454545  Z M 18.3533653846154 6.07315340909091  C 18.4254807692308 6.00071022727273  18.4615384615385 5.90814393939394  18.4615384615385 5.79545454545455  L 18.4615384615385 3.47727272727273  C 18.4615384615385 3.36458333333333  18.4254807692308 3.27201704545455  18.3533653846154 3.19957386363636  C 18.28125 3.12713068181818  18.1891025641026 3.09090909090909  18.0769230769231 3.09090909090909  L 14.2307692307692 3.09090909090909  C 14.1185897435897 3.09090909090909  14.0264423076923 3.12713068181818  13.9543269230769 3.19957386363636  C 13.8822115384615 3.27201704545455  13.8461538461538 3.36458333333333  13.8461538461538 3.47727272727273  L 13.8461538461538 5.79545454545455  C 13.8461538461538 5.90814393939394  13.8822115384615 6.00071022727273  13.9543269230769 6.07315340909091  C 14.0264423076923 6.14559659090909  14.1185897435897 6.18181818181818  14.2307692307692 6.18181818181818  L 18.0769230769231 6.18181818181818  C 18.1891025641026 6.18181818181818  18.28125 6.14559659090909  18.3533653846154 6.07315340909091  Z M 19.4350961538462 0.56747159090909  C 19.8116987179487 0.945785984848483  20 1.40056818181818  20 1.93181818181818  L 20 15.0681818181818  C 20 15.5994318181818  19.8116987179487 16.0542140151515  19.4350961538462 16.4325284090909  C 19.0584935897436 16.8108428030303  18.6057692307692 17  18.0769230769231 17  L 1.92307692307692 17  C 1.39423076923077 17  0.94150641025641 16.8108428030303  0.564903846153846 16.4325284090909  C 0.188301282051282 16.0542140151515  0 15.5994318181818  0 15.0681818181818  L 0 1.93181818181818  C 0 1.40056818181818  0.188301282051282 0.945785984848483  0.564903846153846 0.56747159090909  C 0.94150641025641 0.189157196969695  1.39423076923077 0  1.92307692307692 0  L 18.0769230769231 0  C 18.6057692307692 0  19.0584935897436 0.189157196969695  19.4350961538462 0.56747159090909  Z " fill-rule="nonzero" fill="#a6a6a6" stroke="none" transform="matrix(1 0 0 1 441 10 )" />
  </g>
</svg>