<?xml version="1.0" encoding="utf-8"?>
<svg version="1.1" xmlns:xlink="http://www.w3.org/1999/xlink" width="12px" height="12px" viewBox="151 179.5  12 12" xmlns="http://www.w3.org/2000/svg">
  <path d="M 157 179.5  C 160.36 179.5  163 182.14  163 185.5  C 163 188.86  160.36 191.5  157 191.5  C 153.64 191.5  151 188.86  151 185.5  C 151 182.14  153.64 179.5  157 179.5  Z " fill-rule="nonzero" fill="#f0f0f0" stroke="none" />
  <path d="M 157 180  C 160.08 180  162.5 182.42  162.5 185.5  C 162.5 188.58  160.08 191  157 191  C 153.92 191  151.5 188.58  151.5 185.5  C 151.5 182.42  153.92 180  157 180  Z " stroke-width="1" stroke="#797979" fill="none" />
  <path d="M 157 188.5  C 155.32 188.5  154 187.18  154 185.5  C 154 183.82  155.32 182.5  157 182.5  C 158.68 182.5  160 183.82  160 185.5  C 160 187.18  158.68 188.5  157 188.5  " fill-rule="nonzero" fill="#797979" stroke="none" />
</svg>