<?xml version="1.0" encoding="utf-8"?>
<svg version="1.1" xmlns:xlink="http://www.w3.org/1999/xlink" width="12px" height="12px" viewBox="223 179.5  12 12" xmlns="http://www.w3.org/2000/svg">
  <path d="M 229 179.5  C 232.36 179.5  235 182.14  235 185.5  C 235 188.86  232.36 191.5  229 191.5  C 225.64 191.5  223 188.86  223 185.5  C 223 182.14  225.64 179.5  229 179.5  Z " fill-rule="nonzero" fill="#f0f0f0" stroke="none" />
  <path d="M 229 180  C 232.08 180  234.5 182.42  234.5 185.5  C 234.5 188.58  232.08 191  229 191  C 225.92 191  223.5 188.58  223.5 185.5  C 223.5 182.42  225.92 180  229 180  Z " stroke-width="1" stroke="#797979" fill="none" />
  <path d="M 229 188.5  C 227.32 188.5  226 187.18  226 185.5  C 226 183.82  227.32 182.5  229 182.5  C 230.68 182.5  232 183.82  232 185.5  C 232 187.18  230.68 188.5  229 188.5  " fill-rule="nonzero" fill="#797979" stroke="none" />
</svg>