<?xml version="1.0" encoding="utf-8"?>
<svg version="1.1" xmlns:xlink="http://www.w3.org/1999/xlink" width="20px" height="15px" xmlns="http://www.w3.org/2000/svg">
  <g transform="matrix(1 0 0 1 -444 -12 )">
    <path d="M 3.75 7.5  L 6.25 7.5  L 6.25 12.5  L 3.75 12.5  L 3.75 7.5  Z M 7.5 2.5  L 10 2.5  L 10 12.5  L 7.5 12.5  L 7.5 2.5  Z M 1.25 13.75  L 20 13.75  L 20 15  L 0 15  L 0 0  L 1.25 0  L 1.25 13.75  Z M 11.25 5  L 13.75 5  L 13.75 12.5  L 11.25 12.5  L 11.25 5  Z M 15 1.25  L 17.5 1.25  L 17.5 12.5  L 15 12.5  L 15 1.25  Z " fill-rule="nonzero" fill="#a6a6a6" stroke="none" transform="matrix(1 0 0 1 444 12 )" />
  </g>
</svg>