<?xml version="1.0" encoding="utf-8"?>
<svg version="1.1" xmlns:xlink="http://www.w3.org/1999/xlink" width="11px" height="11px" xmlns="http://www.w3.org/2000/svg">
  <g transform="matrix(1 0 0 1 -299 -1087 )">
    <path d="M 2.7392578125 0.737630208333333  C 3.58192274305556 0.24587673611111  4.50217013888889 0  5.5 0  C 6.49782986111111 0  7.41807725694445 0.24587673611111  8.2607421875 0.737630208333333  C 9.10340711805556 1.22938368055555  9.77061631944445 1.89659288194444  10.2623697916667 2.7392578125  C 10.7541232638889 3.58192274305555  11 4.50217013888889  11 5.5  C 11 6.49782986111111  10.7541232638889 7.41807725694444  10.2623697916667 8.2607421875  C 9.77061631944445 9.10340711805556  9.10340711805556 9.77061631944444  8.2607421875 10.2623697916667  C 7.41807725694445 10.7541232638889  6.49782986111111 11  5.5 11  C 4.50217013888889 11  3.58192274305556 10.7541232638889  2.7392578125 10.2623697916667  C 1.89659288194444 9.77061631944444  1.22938368055556 9.10340711805556  0.737630208333333 8.2607421875  C 0.245876736111111 7.41807725694444  0 6.49782986111111  0 5.5  C 0 4.50217013888889  0.245876736111111 3.58192274305555  0.737630208333333 2.7392578125  C 1.22938368055556 1.89659288194444  1.89659288194444 1.22938368055555  2.7392578125 0.737630208333333  Z M 6.35221354166667 9.0986328125  C 6.39518229166667 9.05327690972222  6.41666666666667 8.99717881944444  6.41666666666667 8.93033854166667  L 6.41666666666667 7.56966145833333  C 6.41666666666667 7.50282118055555  6.39518229166667 7.44672309027778  6.35221354166667 7.4013671875  C 6.30924479166667 7.35601128472222  6.25672743055556 7.33333333333333  6.19466145833333 7.33333333333333  L 4.81966145833333 7.33333333333333  C 4.75759548611111 7.33333333333333  4.70269097222222 7.35720486111111  4.65494791666667 7.40494791666667  C 4.60720486111111 7.45269097222222  4.58333333333333 7.50759548611111  4.58333333333333 7.56966145833333  L 4.58333333333333 8.93033854166667  C 4.58333333333333 8.99240451388889  4.60720486111111 9.04730902777778  4.65494791666667 9.09505208333333  C 4.70269097222222 9.14279513888889  4.75759548611111 9.16666666666667  4.81966145833333 9.16666666666667  L 6.19466145833333 9.16666666666667  C 6.25672743055556 9.16666666666667  6.30924479166667 9.14398871527778  6.35221354166667 9.0986328125  Z M 6.3271484375 6.59212239583333  C 6.37250434027778 6.55631510416667  6.39756944444444 6.51453993055555  6.40234375 6.466796875  L 6.53125 2.01953125  C 6.53125 1.96223958333333  6.50737847222222 1.91927083333333  6.45963541666667 1.890625  C 6.41189236111111 1.85243055555555  6.35460069444444 1.83333333333333  6.28776041666667 1.83333333333333  L 4.71223958333333 1.83333333333333  C 4.64539930555556 1.83333333333333  4.58810763888889 1.85243055555555  4.54036458333333 1.890625  C 4.49262152777778 1.91927083333333  4.46875 1.96223958333333  4.46875 2.01953125  L 4.59049479166667 6.466796875  C 4.59049479166667 6.51453993055555  4.61436631944444 6.55631510416667  4.662109375 6.59212239583333  C 4.70985243055556 6.6279296875  4.76714409722222 6.64583333333333  4.833984375 6.64583333333333  L 6.15885416666667 6.64583333333333  C 6.22569444444444 6.64583333333333  6.28179253472222 6.6279296875  6.3271484375 6.59212239583333  Z " fill-rule="nonzero" fill="#7d7d7d" stroke="none" transform="matrix(1 0 0 1 299 1087 )" />
  </g>
</svg>