<?xml version="1.0" encoding="utf-8"?>
<svg version="1.1" xmlns:xlink="http://www.w3.org/1999/xlink" width="9px" height="8px" xmlns="http://www.w3.org/2000/svg">
  <g transform="matrix(1 0 0 1 -247 -1616 )">
    <path d="M 5.09381959910913 6.72355769230769  C 5.12555679287305 6.69310897435897  5.14142538975501 6.65544871794872  5.14142538975501 6.61057692307692  L 5.14142538975501 5.69711538461539  C 5.14142538975501 5.65224358974359  5.12555679287305 5.61458333333333  5.09381959910913 5.58413461538461  C 5.06208240534521 5.5536858974359  5.02449888641425 5.53846153846154  4.98106904231626 5.53846153846154  L 4.01893095768374 5.53846153846154  C 3.97550111358575 5.53846153846154  3.93791759465479 5.5536858974359  3.90618040089087 5.58413461538461  C 3.87444320712695 5.61458333333333  3.85857461024499 5.65224358974359  3.85857461024499 5.69711538461539  L 3.85857461024499 6.61057692307692  C 3.85857461024499 6.65544871794872  3.87444320712695 6.69310897435897  3.90618040089087 6.72355769230769  C 3.93791759465479 6.75400641025641  3.97550111358575 6.76923076923077  4.01893095768374 6.76923076923077  L 4.98106904231626 6.76923076923077  C 5.02449888641425 6.76923076923077  5.06208240534521 6.75400641025641  5.09381959910913 6.72355769230769  Z M 5.07878619153675 4.89182692307692  C 5.11052338530067 4.87099358974359  5.12806236080178 4.84455128205128  5.13140311804009 4.8125  L 5.22160356347439 2.60576923076923  C 5.22160356347439 2.56730769230769  5.20489977728285 2.53685897435897  5.17149220489978 2.51442307692308  C 5.12806236080178 2.47916666666667  5.08797327394209 2.46153846153846  5.05122494432071 2.46153846153846  L 3.94877505567929 2.46153846153846  C 3.91202672605791 2.46153846153846  3.87193763919822 2.47916666666667  3.82850779510022 2.51442307692308  C 3.79510022271715 2.53685897435897  3.77839643652561 2.57051282051282  3.77839643652561 2.61538461538461  L 3.86358574610245 4.8125  C 3.86358574610245 4.84455128205128  3.88028953229399 4.87099358974359  3.91369710467706 4.89182692307692  C 3.94710467706013 4.91266025641026  3.98719376391982 4.92307692307692  4.03396436525612 4.92307692307692  L 4.96102449888641 4.92307692307692  C 5.00779510022272 4.92307692307692  5.04704899777283 4.91266025641026  5.07878619153675 4.89182692307692  Z M 4.82572383073497 0.0865384615384617  C 4.92594654788419 0.144230769230769  5.00445434298441 0.22275641025641  5.06124721603563 0.322115384615385  L 8.9097995545657 7.09134615384615  C 9.02672605790646 7.29326923076923  9.02338530066815 7.49519230769231  8.89977728285078 7.69711538461539  C 8.84298440979956 7.7900641025641  8.76531180400891 7.86378205128205  8.66675946547884 7.91826923076923  C 8.56820712694878 7.97275641025641  8.46213808463252 8  8.34855233853007 8  L 0.651447661469933 8  C 0.537861915367483 8  0.431792873051225 7.97275641025641  0.333240534521158 7.91826923076923  C 0.234688195991091 7.86378205128205  0.157015590200445 7.7900641025641  0.10022271714922 7.69711538461539  C -0.0233853006681515 7.49519230769231  -0.0267260579064588 7.29326923076923  0.0902004454342984 7.09134615384615  L 3.93875278396437 0.322115384615385  C 3.99554565701559 0.22275641025641  4.07405345211581 0.144230769230769  4.17427616926503 0.0865384615384617  C 4.27449888641425 0.0288461538461542  4.38307349665924 0  4.5 0  C 4.61692650334076 0  4.72550111358575 0.0288461538461542  4.82572383073497 0.0865384615384617  Z " fill-rule="nonzero" fill="#eebd3b" stroke="none" transform="matrix(1 0 0 1 247 1616 )" />
  </g>
</svg>