<?xml version="1.0" encoding="utf-8"?>
<svg version="1.1" xmlns:xlink="http://www.w3.org/1999/xlink" width="12px" height="12px" xmlns="http://www.w3.org/2000/svg">
  <g transform="matrix(1 0 0 1 -878 -99 )">
    <path d="M 9.74147727272727 5.53125  C 9.79261363636364 5.58238636363636  9.81818181818182 5.64772727272727  9.81818181818182 5.72727272727273  L 9.81818181818182 6.27272727272727  C 9.81818181818182 6.35227272727273  9.79261363636364 6.41761363636364  9.74147727272727 6.46875  C 9.69034090909091 6.51988636363636  9.625 6.54545454545454  9.54545454545454 6.54545454545454  L 2.45454545454545 6.54545454545454  C 2.375 6.54545454545454  2.30965909090909 6.51988636363636  2.25852272727273 6.46875  C 2.20738636363636 6.41761363636364  2.18181818181818 6.35227272727273  2.18181818181818 6.27272727272727  L 2.18181818181818 5.72727272727273  C 2.18181818181818 5.64772727272727  2.20738636363636 5.58238636363636  2.25852272727273 5.53125  C 2.30965909090909 5.48011363636364  2.375 5.45454545454546  2.45454545454545 5.45454545454546  L 9.54545454545454 5.45454545454546  C 9.625 5.45454545454546  9.69034090909091 5.48011363636364  9.74147727272727 5.53125  Z M 10.5085227272727 10.5085227272727  C 10.7755681818182 10.2414772727273  10.9090909090909 9.92045454545454  10.9090909090909 9.54545454545454  L 10.9090909090909 2.45454545454546  C 10.9090909090909 2.07954545454546  10.7755681818182 1.75852272727273  10.5085227272727 1.49147727272727  C 10.2414772727273 1.22443181818182  9.92045454545454 1.09090909090909  9.54545454545454 1.09090909090909  L 2.45454545454545 1.09090909090909  C 2.07954545454545 1.09090909090909  1.75852272727273 1.22443181818182  1.49147727272727 1.49147727272727  C 1.22443181818182 1.75852272727273  1.09090909090909 2.07954545454546  1.09090909090909 2.45454545454546  L 1.09090909090909 9.54545454545454  C 1.09090909090909 9.92045454545454  1.22443181818182 10.2414772727273  1.49147727272727 10.5085227272727  C 1.75852272727273 10.7755681818182  2.07954545454545 10.9090909090909  2.45454545454545 10.9090909090909  L 9.54545454545454 10.9090909090909  C 9.92045454545454 10.9090909090909  10.2414772727273 10.7755681818182  10.5085227272727 10.5085227272727  Z M 11.2798295454545 0.720170454545455  C 11.7599431818182 1.20028409090909  12 1.77840909090909  12 2.45454545454546  L 12 9.54545454545454  C 12 10.2215909090909  11.7599431818182 10.7997159090909  11.2798295454545 11.2798295454545  C 10.7997159090909 11.7599431818182  10.2215909090909 12  9.54545454545454 12  L 2.45454545454545 12  C 1.77840909090909 12  1.20028409090909 11.7599431818182  0.720170454545455 11.2798295454545  C 0.240056818181818 10.7997159090909  0 10.2215909090909  0 9.54545454545454  L 0 2.45454545454546  C 0 1.77840909090909  0.240056818181818 1.20028409090909  0.720170454545455 0.720170454545455  C 1.20028409090909 0.240056818181817  1.77840909090909 0  2.45454545454545 0  L 9.54545454545454 0  C 10.2215909090909 0  10.7997159090909 0.240056818181817  11.2798295454545 0.720170454545455  Z " fill-rule="nonzero" fill="#000000" stroke="none" transform="matrix(1 0 0 1 878 99 )" />
  </g>
</svg>