<?xml version="1.0" encoding="utf-8"?>
<svg version="1.1" xmlns:xlink="http://www.w3.org/1999/xlink" width="10px" height="24px" preserveAspectRatio="xMidYMin meet" viewBox="47 160  8 24" xmlns="http://www.w3.org/2000/svg">
  <path d="M 74 379  L 43 379  A 3 3 0 0 0 40 376 A 3 3 0 0 0 37 379 A 0.925925925925981 0.925925925925981 0 0 1 36.074074074074 378.074074074074 L 36.074074074074 165.925925925926  A 0.925925925925981 0.925925925925981 0 0 1 37 165 A 3 3 0 0 1 40 162 A 3 3 0 0 1 43 165 L 46 165  A 5 5 0 0 1 51 170 L 51 174  A 5 5 0 0 0 56 179 L 69 179  " stroke-width="2" stroke="#0099cc" fill="none" />
</svg>