<?xml version="1.0" encoding="utf-8"?>
<svg version="1.1" xmlns:xlink="http://www.w3.org/1999/xlink" width="12px" height="12px" viewBox="151 66  12 12" xmlns="http://www.w3.org/2000/svg">
  <path d="M 157 66  C 160.36 66  163 68.64  163 72  C 163 75.36  160.36 78  157 78  C 153.64 78  151 75.36  151 72  C 151 68.64  153.64 66  157 66  Z " fill-rule="nonzero" fill="#f0f0f0" stroke="none" />
  <path d="M 157 66.5  C 160.08 66.5  162.5 68.92  162.5 72  C 162.5 75.08  160.08 77.5  157 77.5  C 153.92 77.5  151.5 75.08  151.5 72  C 151.5 68.92  153.92 66.5  157 66.5  Z " stroke-width="1" stroke="#797979" fill="none" />
  <path d="M 157 75  C 155.32 75  154 73.68  154 72  C 154 70.32  155.32 69  157 69  C 158.68 69  160 70.32  160 72  C 160 73.68  158.68 75  157 75  " fill-rule="nonzero" fill="#797979" stroke="none" />
</svg>