<?xml version="1.0" encoding="utf-8"?>
<svg version="1.1" xmlns:xlink="http://www.w3.org/1999/xlink" width="12px" height="12px" viewBox="151 35  12 12" xmlns="http://www.w3.org/2000/svg">
  <path d="M 157 35  C 160.36 35  163 37.64  163 41  C 163 44.36  160.36 47  157 47  C 153.64 47  151 44.36  151 41  C 151 37.64  153.64 35  157 35  Z " fill-rule="nonzero" fill="#ffffff" stroke="none" />
  <path d="M 157 35.5  C 160.08 35.5  162.5 37.92  162.5 41  C 162.5 44.08  160.08 46.5  157 46.5  C 153.92 46.5  151.5 44.08  151.5 41  C 151.5 37.92  153.92 35.5  157 35.5  Z " stroke-width="1" stroke="#797979" fill="none" />
  <path d="M 157 44  C 155.32 44  154 42.68  154 41  C 154 39.32  155.32 38  157 38  C 158.68 38  160 39.32  160 41  C 160 42.68  158.68 44  157 44  " fill-rule="nonzero" fill="#797979" stroke="none" />
</svg>