<?xml version="1.0" encoding="utf-8"?>
<svg version="1.1" xmlns:xlink="http://www.w3.org/1999/xlink" width="12px" height="12px" viewBox="208 66  12 12" xmlns="http://www.w3.org/2000/svg">
  <path d="M 214 66  C 217.36 66  220 68.64  220 72  C 220 75.36  217.36 78  214 78  C 210.64 78  208 75.36  208 72  C 208 68.64  210.64 66  214 66  Z " fill-rule="nonzero" fill="#f0f0f0" stroke="none" />
  <path d="M 214 66.5  C 217.08 66.5  219.5 68.92  219.5 72  C 219.5 75.08  217.08 77.5  214 77.5  C 210.92 77.5  208.5 75.08  208.5 72  C 208.5 68.92  210.92 66.5  214 66.5  Z " stroke-width="1" stroke="#797979" fill="none" />
  <path d="M 214 75  C 212.32 75  211 73.68  211 72  C 211 70.32  212.32 69  214 69  C 215.68 69  217 70.32  217 72  C 217 73.68  215.68 75  214 75  " fill-rule="nonzero" fill="#797979" stroke="none" />
</svg>