<?xml version="1.0" encoding="utf-8"?>
<svg version="1.1" xmlns:xlink="http://www.w3.org/1999/xlink" width="12px" height="12px" viewBox="208 126  12 12" xmlns="http://www.w3.org/2000/svg">
  <path d="M 214 126  C 217.36 126  220 128.64  220 132  C 220 135.36  217.36 138  214 138  C 210.64 138  208 135.36  208 132  C 208 128.64  210.64 126  214 126  Z " fill-rule="nonzero" fill="#ffffff" stroke="none" />
  <path d="M 214 126.5  C 217.08 126.5  219.5 128.92  219.5 132  C 219.5 135.08  217.08 137.5  214 137.5  C 210.92 137.5  208.5 135.08  208.5 132  C 208.5 128.92  210.92 126.5  214 126.5  Z " stroke-width="1" stroke="#797979" fill="none" />
  <path d="M 214 135  C 212.32 135  211 133.68  211 132  C 211 130.32  212.32 129  214 129  C 215.68 129  217 130.32  217 132  C 217 133.68  215.68 135  214 135  " fill-rule="nonzero" fill="#797979" stroke="none" />
</svg>