<?xml version="1.0" encoding="utf-8"?>
<svg version="1.1" xmlns:xlink="http://www.w3.org/1999/xlink" width="12px" height="12px" viewBox="208 106  12 12" xmlns="http://www.w3.org/2000/svg">
  <path d="M 214 106  C 217.36 106  220 108.64  220 112  C 220 115.36  217.36 118  214 118  C 210.64 118  208 115.36  208 112  C 208 108.64  210.64 106  214 106  Z " fill-rule="nonzero" fill="#ffffff" stroke="none" />
  <path d="M 214 106.5  C 217.08 106.5  219.5 108.92  219.5 112  C 219.5 115.08  217.08 117.5  214 117.5  C 210.92 117.5  208.5 115.08  208.5 112  C 208.5 108.92  210.92 106.5  214 106.5  Z " stroke-width="1" stroke="#797979" fill="none" />
  <path d="M 214 115  C 212.32 115  211 113.68  211 112  C 211 110.32  212.32 109  214 109  C 215.68 109  217 110.32  217 112  C 217 113.68  215.68 115  214 115  " fill-rule="nonzero" fill="#797979" stroke="none" />
</svg>