<?xml version="1.0" encoding="utf-8"?>
<svg version="1.1" xmlns:xlink="http://www.w3.org/1999/xlink" width="12px" height="12px" viewBox="208 76  12 12" xmlns="http://www.w3.org/2000/svg">
  <path d="M 214 76  C 217.36 76  220 78.64  220 82  C 220 85.36  217.36 88  214 88  C 210.64 88  208 85.36  208 82  C 208 78.64  210.64 76  214 76  Z " fill-rule="nonzero" fill="#f0f0f0" stroke="none" />
  <path d="M 214 76.5  C 217.08 76.5  219.5 78.92  219.5 82  C 219.5 85.08  217.08 87.5  214 87.5  C 210.92 87.5  208.5 85.08  208.5 82  C 208.5 78.92  210.92 76.5  214 76.5  Z " stroke-width="1" stroke="#797979" fill="none" />
  <path d="M 214 85  C 212.32 85  211 83.68  211 82  C 211 80.32  212.32 79  214 79  C 215.68 79  217 80.32  217 82  C 217 83.68  215.68 85  214 85  " fill-rule="nonzero" fill="#797979" stroke="none" />
</svg>