<?xml version="1.0" encoding="utf-8"?>
<svg version="1.1" xmlns:xlink="http://www.w3.org/1999/xlink" width="12px" height="12px" viewBox="151 45  12 12" xmlns="http://www.w3.org/2000/svg">
  <path d="M 157 45  C 160.36 45  163 47.64  163 51  C 163 54.36  160.36 57  157 57  C 153.64 57  151 54.36  151 51  C 151 47.64  153.64 45  157 45  Z " fill-rule="nonzero" fill="#ffffff" stroke="none" />
  <path d="M 157 45.5  C 160.08 45.5  162.5 47.92  162.5 51  C 162.5 54.08  160.08 56.5  157 56.5  C 153.92 56.5  151.5 54.08  151.5 51  C 151.5 47.92  153.92 45.5  157 45.5  Z " stroke-width="1" stroke="#797979" fill="none" />
  <path d="M 157 54  C 155.32 54  154 52.68  154 51  C 154 49.32  155.32 48  157 48  C 158.68 48  160 49.32  160 51  C 160 52.68  158.68 54  157 54  " fill-rule="nonzero" fill="#797979" stroke="none" />
</svg>