<?xml version="1.0" encoding="utf-8"?>
<svg version="1.1" xmlns:xlink="http://www.w3.org/1999/xlink" width="12px" height="12px" viewBox="205 51  12 12" xmlns="http://www.w3.org/2000/svg">
  <path d="M 211 51  C 214.36 51  217 53.64  217 57  C 217 60.36  214.36 63  211 63  C 207.64 63  205 60.36  205 57  C 205 53.64  207.64 51  211 51  Z " fill-rule="nonzero" fill="#ffffff" stroke="none" />
  <path d="M 211 51.5  C 214.08 51.5  216.5 53.92  216.5 57  C 216.5 60.08  214.08 62.5  211 62.5  C 207.92 62.5  205.5 60.08  205.5 57  C 205.5 53.92  207.92 51.5  211 51.5  Z " stroke-width="1" stroke="#797979" fill="none" />
  <path d="M 211 60  C 209.32 60  208 58.68  208 57  C 208 55.32  209.32 54  211 54  C 212.68 54  214 55.32  214 57  C 214 58.68  212.68 60  211 60  " fill-rule="nonzero" fill="#797979" stroke="none" />
</svg>