<?xml version="1.0" encoding="utf-8"?>
<svg version="1.1" xmlns:xlink="http://www.w3.org/1999/xlink" width="12px" height="12px" viewBox="148 31  12 12" xmlns="http://www.w3.org/2000/svg">
  <path d="M 154 31  C 157.36 31  160 33.64  160 37  C 160 40.36  157.36 43  154 43  C 150.64 43  148 40.36  148 37  C 148 33.64  150.64 31  154 31  Z " fill-rule="nonzero" fill="#f0f0f0" stroke="none" />
  <path d="M 154 31.5  C 157.08 31.5  159.5 33.92  159.5 37  C 159.5 40.08  157.08 42.5  154 42.5  C 150.92 42.5  148.5 40.08  148.5 37  C 148.5 33.92  150.92 31.5  154 31.5  Z " stroke-width="1" stroke="#797979" fill="none" />
  <path d="M 154 40  C 152.32 40  151 38.68  151 37  C 151 35.32  152.32 34  154 34  C 155.68 34  157 35.32  157 37  C 157 38.68  155.68 40  154 40  " fill-rule="nonzero" fill="#797979" stroke="none" />
</svg>