<?xml version="1.0" encoding="utf-8"?>
<svg version="1.1" xmlns:xlink="http://www.w3.org/1999/xlink" width="12px" height="12px" viewBox="151 106  12 12" xmlns="http://www.w3.org/2000/svg">
  <path d="M 157 106  C 160.36 106  163 108.64  163 112  C 163 115.36  160.36 118  157 118  C 153.64 118  151 115.36  151 112  C 151 108.64  153.64 106  157 106  Z " fill-rule="nonzero" fill="#ffffff" stroke="none" />
  <path d="M 157 106.5  C 160.08 106.5  162.5 108.92  162.5 112  C 162.5 115.08  160.08 117.5  157 117.5  C 153.92 117.5  151.5 115.08  151.5 112  C 151.5 108.92  153.92 106.5  157 106.5  Z " stroke-width="1" stroke="#797979" fill="none" />
  <path d="M 157 115  C 155.32 115  154 113.68  154 112  C 154 110.32  155.32 109  157 109  C 158.68 109  160 110.32  160 112  C 160 113.68  158.68 115  157 115  " fill-rule="nonzero" fill="#797979" stroke="none" />
</svg>