<?xml version="1.0" encoding="utf-8"?>
<svg version="1.1" xmlns:xlink="http://www.w3.org/1999/xlink" width="12px" height="12px" viewBox="151 122  12 12" xmlns="http://www.w3.org/2000/svg">
  <path d="M 157 122  C 160.36 122  163 124.64  163 128  C 163 131.36  160.36 134  157 134  C 153.64 134  151 131.36  151 128  C 151 124.64  153.64 122  157 122  Z " fill-rule="nonzero" fill="#ffffff" stroke="none" />
  <path d="M 157 122.5  C 160.08 122.5  162.5 124.92  162.5 128  C 162.5 131.08  160.08 133.5  157 133.5  C 153.92 133.5  151.5 131.08  151.5 128  C 151.5 124.92  153.92 122.5  157 122.5  Z " stroke-width="1" stroke="#797979" fill="none" />
  <path d="M 157 131  C 155.32 131  154 129.68  154 128  C 154 126.32  155.32 125  157 125  C 158.68 125  160 126.32  160 128  C 160 129.68  158.68 131  157 131  " fill-rule="nonzero" fill="#797979" stroke="none" />
</svg>