<?xml version="1.0" encoding="utf-8"?>
<svg version="1.1" xmlns:xlink="http://www.w3.org/1999/xlink" width="12px" height="12px" viewBox="151 76  12 12" xmlns="http://www.w3.org/2000/svg">
  <path d="M 157 76  C 160.36 76  163 78.64  163 82  C 163 85.36  160.36 88  157 88  C 153.64 88  151 85.36  151 82  C 151 78.64  153.64 76  157 76  Z " fill-rule="nonzero" fill="#f0f0f0" stroke="none" />
  <path d="M 157 76.5  C 160.08 76.5  162.5 78.92  162.5 82  C 162.5 85.08  160.08 87.5  157 87.5  C 153.92 87.5  151.5 85.08  151.5 82  C 151.5 78.92  153.92 76.5  157 76.5  Z " stroke-width="1" stroke="#797979" fill="none" />
  <path d="M 157 85  C 155.32 85  154 83.68  154 82  C 154 80.32  155.32 79  157 79  C 158.68 79  160 80.32  160 82  C 160 83.68  158.68 85  157 85  " fill-rule="nonzero" fill="#797979" stroke="none" />
</svg>