<?xml version="1.0" encoding="utf-8"?>
<svg version="1.1" xmlns:xlink="http://www.w3.org/1999/xlink" width="12px" height="12px" viewBox="208 92  12 12" xmlns="http://www.w3.org/2000/svg">
  <path d="M 214 92  C 217.36 92  220 94.64  220 98  C 220 101.36  217.36 104  214 104  C 210.64 104  208 101.36  208 98  C 208 94.64  210.64 92  214 92  Z " fill-rule="nonzero" fill="#ffffff" stroke="none" />
  <path d="M 214 92.5  C 217.08 92.5  219.5 94.92  219.5 98  C 219.5 101.08  217.08 103.5  214 103.5  C 210.92 103.5  208.5 101.08  208.5 98  C 208.5 94.92  210.92 92.5  214 92.5  Z " stroke-width="1" stroke="#797979" fill="none" />
  <path d="M 214 101  C 212.32 101  211 99.68  211 98  C 211 96.32  212.32 95  214 95  C 215.68 95  217 96.32  217 98  C 217 99.68  215.68 101  214 101  " fill-rule="nonzero" fill="#797979" stroke="none" />
</svg>