<?xml version="1.0" encoding="utf-8"?>
<svg version="1.1" xmlns:xlink="http://www.w3.org/1999/xlink" width="12px" height="12px" viewBox="208 45  12 12" xmlns="http://www.w3.org/2000/svg">
  <path d="M 214 45  C 217.36 45  220 47.64  220 51  C 220 54.36  217.36 57  214 57  C 210.64 57  208 54.36  208 51  C 208 47.64  210.64 45  214 45  Z " fill-rule="nonzero" fill="#f0f0f0" stroke="none" />
  <path d="M 214 45.5  C 217.08 45.5  219.5 47.92  219.5 51  C 219.5 54.08  217.08 56.5  214 56.5  C 210.92 56.5  208.5 54.08  208.5 51  C 208.5 47.92  210.92 45.5  214 45.5  Z " stroke-width="1" stroke="#797979" fill="none" />
  <path d="M 214 54  C 212.32 54  211 52.68  211 51  C 211 49.32  212.32 48  214 48  C 215.68 48  217 49.32  217 51  C 217 52.68  215.68 54  214 54  " fill-rule="nonzero" fill="#797979" stroke="none" />
</svg>