<?xml version="1.0" encoding="utf-8"?>
<svg version="1.1" xmlns:xlink="http://www.w3.org/1999/xlink" width="12px" height="12px" viewBox="151 92  12 12" xmlns="http://www.w3.org/2000/svg">
  <path d="M 157 92  C 160.36 92  163 94.64  163 98  C 163 101.36  160.36 104  157 104  C 153.64 104  151 101.36  151 98  C 151 94.64  153.64 92  157 92  Z " fill-rule="nonzero" fill="#ffffff" stroke="none" />
  <path d="M 157 92.5  C 160.08 92.5  162.5 94.92  162.5 98  C 162.5 101.08  160.08 103.5  157 103.5  C 153.92 103.5  151.5 101.08  151.5 98  C 151.5 94.92  153.92 92.5  157 92.5  Z " stroke-width="1" stroke="#797979" fill="none" />
  <path d="M 157 101  C 155.32 101  154 99.68  154 98  C 154 96.32  155.32 95  157 95  C 158.68 95  160 96.32  160 98  C 160 99.68  158.68 101  157 101  " fill-rule="nonzero" fill="#797979" stroke="none" />
</svg>