<?xml version="1.0" encoding="utf-8"?>
<svg version="1.1" xmlns:xlink="http://www.w3.org/1999/xlink" width="12px" height="12px" viewBox="151 61  12 12" xmlns="http://www.w3.org/2000/svg">
  <path d="M 157 61  C 160.36 61  163 63.64  163 67  C 163 70.36  160.36 73  157 73  C 153.64 73  151 70.36  151 67  C 151 63.64  153.64 61  157 61  Z " fill-rule="nonzero" fill="#ffffff" stroke="none" />
  <path d="M 157 61.5  C 160.08 61.5  162.5 63.92  162.5 67  C 162.5 70.08  160.08 72.5  157 72.5  C 153.92 72.5  151.5 70.08  151.5 67  C 151.5 63.92  153.92 61.5  157 61.5  Z " stroke-width="1" stroke="#797979" fill="none" />
  <path d="M 157 70  C 155.32 70  154 68.68  154 67  C 154 65.32  155.32 64  157 64  C 158.68 64  160 65.32  160 67  C 160 68.68  158.68 70  157 70  " fill-rule="nonzero" fill="#797979" stroke="none" />
</svg>