<?xml version="1.0" encoding="utf-8"?>
<svg version="1.1" xmlns:xlink="http://www.w3.org/1999/xlink" width="12px" height="12px" viewBox="208 61  12 12" xmlns="http://www.w3.org/2000/svg">
  <path d="M 214 61  C 217.36 61  220 63.64  220 67  C 220 70.36  217.36 73  214 73  C 210.64 73  208 70.36  208 67  C 208 63.64  210.64 61  214 61  Z " fill-rule="nonzero" fill="#ffffff" stroke="none" />
  <path d="M 214 61.5  C 217.08 61.5  219.5 63.92  219.5 67  C 219.5 70.08  217.08 72.5  214 72.5  C 210.92 72.5  208.5 70.08  208.5 67  C 208.5 63.92  210.92 61.5  214 61.5  Z " stroke-width="1" stroke="#797979" fill="none" />
  <path d="M 214 70  C 212.32 70  211 68.68  211 67  C 211 65.32  212.32 64  214 64  C 215.68 64  217 65.32  217 67  C 217 68.68  215.68 70  214 70  " fill-rule="nonzero" fill="#797979" stroke="none" />
</svg>