<?xml version="1.0" encoding="utf-8"?>
<svg version="1.1" xmlns:xlink="http://www.w3.org/1999/xlink" width="12px" height="12px" viewBox="151 126  12 12" xmlns="http://www.w3.org/2000/svg">
  <path d="M 157 126  C 160.36 126  163 128.64  163 132  C 163 135.36  160.36 138  157 138  C 153.64 138  151 135.36  151 132  C 151 128.64  153.64 126  157 126  Z " fill-rule="nonzero" fill="#ffffff" stroke="none" />
  <path d="M 157 126.5  C 160.08 126.5  162.5 128.92  162.5 132  C 162.5 135.08  160.08 137.5  157 137.5  C 153.92 137.5  151.5 135.08  151.5 132  C 151.5 128.92  153.92 126.5  157 126.5  Z " stroke-width="1" stroke="#797979" fill="none" />
  <path d="M 157 135  C 155.32 135  154 133.68  154 132  C 154 130.32  155.32 129  157 129  C 158.68 129  160 130.32  160 132  C 160 133.68  158.68 135  157 135  " fill-rule="nonzero" fill="#797979" stroke="none" />
</svg>