<?xml version="1.0" encoding="utf-8"?>
<svg version="1.1" xmlns:xlink="http://www.w3.org/1999/xlink" width="12px" height="12px" viewBox="208 65  12 12" xmlns="http://www.w3.org/2000/svg">
  <path d="M 214 65  C 217.36 65  220 67.64  220 71  C 220 74.36  217.36 77  214 77  C 210.64 77  208 74.36  208 71  C 208 67.64  210.64 65  214 65  Z " fill-rule="nonzero" fill="#ffffff" stroke="none" />
  <path d="M 214 65.5  C 217.08 65.5  219.5 67.92  219.5 71  C 219.5 74.08  217.08 76.5  214 76.5  C 210.92 76.5  208.5 74.08  208.5 71  C 208.5 67.92  210.92 65.5  214 65.5  Z " stroke-width="1" stroke="#797979" fill="none" />
  <path d="M 214 74  C 212.32 74  211 72.68  211 71  C 211 69.32  212.32 68  214 68  C 215.68 68  217 69.32  217 71  C 217 72.68  215.68 74  214 74  " fill-rule="nonzero" fill="#797979" stroke="none" />
</svg>